<svg xmlns="http://www.w3.org/2000/svg" viewBox="0 0 64 64"><defs><style>.a{fill:#fff;}</style></defs><path class="a" d="M63.73,14.32,58.33,2.83A2.48,2.48,0,0,0,55,1.61L33.69,11.66a2.51,2.51,0,0,0-1.42,2.62L14.58,22.6a2.46,2.46,0,0,0-1.43,2L1.45,30.13A2.49,2.49,0,0,0,.26,33.45l2.87,6.11a2.51,2.51,0,0,0,1.42,1.31,2.65,2.65,0,0,0,.84.15,2.46,2.46,0,0,0,1.07-.24l11.7-5.51a2.47,2.47,0,0,0,1.39.42,2.32,2.32,0,0,0,1.07-.23L25.86,33,14.41,58.24a2.5,2.5,0,0,0,4.2,2.7,2.66,2.66,0,0,0,.3-.64l9.44-20.87V60a2.5,2.5,0,1,0,5,0V39.66l9.17,20.62a2.51,2.51,0,0,0,4.62-2l0,0L34.18,29.07l4.15-1.9a2.21,2.21,0,0,0,1,.67,2.46,2.46,0,0,0,.85.16,2.58,2.58,0,0,0,1.06-.25l21.32-10a2.52,2.52,0,0,0,1.23-3.34A.21.21,0,0,0,63.73,14.32ZM6.59,35.18l-.77-1.6L15,29.3l.75,1.59Zm14.16-5.33L19,26.07,34.3,18.86l1.78,3.77Zm20.64-7.76-3.27-7L54.91,7.28l3.26,6.91Z"/></svg>